<mxfile host="app.diagrams.net" modified="2020-08-05T17:01:56.090Z" agent="5.0 (Windows NT 6.1) AppleWebKit/537.36 (KHTML, like Gecko) Chrome/84.0.4147.105 Safari/537.36" etag="NNoieL75M0LCL_CAGxtF" version="13.5.5" type="github">
  <diagram id="w2r-ZYbkxM-OtNSrUkWs" name="Page-1">
    <mxGraphModel dx="862" dy="1651" grid="1" gridSize="10" guides="1" tooltips="1" connect="1" arrows="1" fold="1" page="1" pageScale="1" pageWidth="827" pageHeight="1169" math="0" shadow="0">
      <root>
        <mxCell id="0" />
        <mxCell id="1" parent="0" />
        <mxCell id="siOsUkltjjiD13jDmhsd-1" value="mãe" style="rounded=0;whiteSpace=wrap;html=1;" vertex="1" parent="1">
          <mxGeometry x="125" y="-30" width="120" height="60" as="geometry" />
        </mxCell>
        <mxCell id="siOsUkltjjiD13jDmhsd-2" value="bebe" style="rounded=0;whiteSpace=wrap;html=1;" vertex="1" parent="1">
          <mxGeometry x="600" y="-30" width="120" height="60" as="geometry" />
        </mxCell>
        <mxCell id="siOsUkltjjiD13jDmhsd-3" value="n" style="endArrow=none;html=1;exitX=1;exitY=0.5;exitDx=0;exitDy=0;entryX=0;entryY=0.5;entryDx=0;entryDy=0;" edge="1" parent="1" source="siOsUkltjjiD13jDmhsd-4" target="siOsUkltjjiD13jDmhsd-2">
          <mxGeometry width="50" height="50" relative="1" as="geometry">
            <mxPoint x="400" y="165" as="sourcePoint" />
            <mxPoint x="450" y="115" as="targetPoint" />
          </mxGeometry>
        </mxCell>
        <mxCell id="siOsUkltjjiD13jDmhsd-4" value="parto" style="rhombus;whiteSpace=wrap;html=1;" vertex="1" parent="1">
          <mxGeometry x="368.75" y="-40" width="80" height="80" as="geometry" />
        </mxCell>
        <mxCell id="siOsUkltjjiD13jDmhsd-5" value="1" style="endArrow=none;html=1;exitX=1;exitY=0.5;exitDx=0;exitDy=0;entryX=0;entryY=0.5;entryDx=0;entryDy=0;" edge="1" parent="1" source="siOsUkltjjiD13jDmhsd-1" target="siOsUkltjjiD13jDmhsd-4">
          <mxGeometry width="50" height="50" relative="1" as="geometry">
            <mxPoint x="240" y="140" as="sourcePoint" />
            <mxPoint x="590" y="140" as="targetPoint" />
          </mxGeometry>
        </mxCell>
        <mxCell id="siOsUkltjjiD13jDmhsd-6" value="medicos" style="rounded=0;whiteSpace=wrap;html=1;" vertex="1" parent="1">
          <mxGeometry x="600" y="220" width="120" height="60" as="geometry" />
        </mxCell>
        <mxCell id="siOsUkltjjiD13jDmhsd-9" value="cuida" style="rhombus;whiteSpace=wrap;html=1;" vertex="1" parent="1">
          <mxGeometry x="620" y="80" width="80" height="80" as="geometry" />
        </mxCell>
        <mxCell id="siOsUkltjjiD13jDmhsd-11" value="Questão 2" style="text;html=1;align=center;verticalAlign=middle;resizable=0;points=[];autosize=1;" vertex="1" parent="1">
          <mxGeometry x="165.25" y="-80" width="70" height="20" as="geometry" />
        </mxCell>
        <mxCell id="siOsUkltjjiD13jDmhsd-12" value="Atividade 3&lt;br&gt;" style="text;html=1;align=center;verticalAlign=middle;resizable=0;points=[];autosize=1;" vertex="1" parent="1">
          <mxGeometry x="175" y="380" width="70" height="20" as="geometry" />
        </mxCell>
        <mxCell id="siOsUkltjjiD13jDmhsd-13" value="cliente" style="rounded=0;whiteSpace=wrap;html=1;" vertex="1" parent="1">
          <mxGeometry x="120" y="430" width="120" height="60" as="geometry" />
        </mxCell>
        <mxCell id="siOsUkltjjiD13jDmhsd-14" value="compras" style="rounded=0;whiteSpace=wrap;html=1;" vertex="1" parent="1">
          <mxGeometry x="590" y="430" width="120" height="60" as="geometry" />
        </mxCell>
        <mxCell id="siOsUkltjjiD13jDmhsd-15" value="n" style="endArrow=none;html=1;exitX=1;exitY=0.5;exitDx=0;exitDy=0;entryX=0;entryY=0.5;entryDx=0;entryDy=0;" edge="1" parent="1" source="siOsUkltjjiD13jDmhsd-16" target="siOsUkltjjiD13jDmhsd-14">
          <mxGeometry width="50" height="50" relative="1" as="geometry">
            <mxPoint x="400" y="485" as="sourcePoint" />
            <mxPoint x="450" y="435" as="targetPoint" />
          </mxGeometry>
        </mxCell>
        <mxCell id="siOsUkltjjiD13jDmhsd-16" value="faz" style="rhombus;whiteSpace=wrap;html=1;" vertex="1" parent="1">
          <mxGeometry x="373.5" y="420" width="80" height="80" as="geometry" />
        </mxCell>
        <mxCell id="siOsUkltjjiD13jDmhsd-17" value="1" style="endArrow=none;html=1;exitX=1;exitY=0.5;exitDx=0;exitDy=0;entryX=0;entryY=0.5;entryDx=0;entryDy=0;" edge="1" parent="1" source="siOsUkltjjiD13jDmhsd-13" target="siOsUkltjjiD13jDmhsd-16">
          <mxGeometry width="50" height="50" relative="1" as="geometry">
            <mxPoint x="240" y="460" as="sourcePoint" />
            <mxPoint x="590" y="460" as="targetPoint" />
          </mxGeometry>
        </mxCell>
        <mxCell id="siOsUkltjjiD13jDmhsd-18" value="produto" style="rounded=0;whiteSpace=wrap;html=1;" vertex="1" parent="1">
          <mxGeometry x="120" y="550" width="120" height="60" as="geometry" />
        </mxCell>
        <mxCell id="siOsUkltjjiD13jDmhsd-19" value="compra" style="rounded=0;whiteSpace=wrap;html=1;" vertex="1" parent="1">
          <mxGeometry x="590" y="550" width="120" height="60" as="geometry" />
        </mxCell>
        <mxCell id="siOsUkltjjiD13jDmhsd-20" value="n" style="endArrow=none;html=1;exitX=1;exitY=0.5;exitDx=0;exitDy=0;entryX=0;entryY=0.5;entryDx=0;entryDy=0;" edge="1" parent="1" source="siOsUkltjjiD13jDmhsd-21" target="siOsUkltjjiD13jDmhsd-19">
          <mxGeometry width="50" height="50" relative="1" as="geometry">
            <mxPoint x="400" y="605" as="sourcePoint" />
            <mxPoint x="450" y="555" as="targetPoint" />
          </mxGeometry>
        </mxCell>
        <mxCell id="siOsUkltjjiD13jDmhsd-21" value="contem" style="rhombus;whiteSpace=wrap;html=1;" vertex="1" parent="1">
          <mxGeometry x="373.5" y="540" width="80" height="80" as="geometry" />
        </mxCell>
        <mxCell id="siOsUkltjjiD13jDmhsd-22" value="n" style="endArrow=none;html=1;exitX=1;exitY=0.5;exitDx=0;exitDy=0;entryX=0;entryY=0.5;entryDx=0;entryDy=0;" edge="1" parent="1" source="siOsUkltjjiD13jDmhsd-18" target="siOsUkltjjiD13jDmhsd-21">
          <mxGeometry x="0.0037" width="50" height="50" relative="1" as="geometry">
            <mxPoint x="240" y="580" as="sourcePoint" />
            <mxPoint x="590" y="580" as="targetPoint" />
            <mxPoint as="offset" />
          </mxGeometry>
        </mxCell>
        <mxCell id="siOsUkltjjiD13jDmhsd-23" value="Atividade 4&lt;br&gt;" style="text;html=1;align=center;verticalAlign=middle;resizable=0;points=[];autosize=1;" vertex="1" parent="1">
          <mxGeometry x="145" y="680" width="70" height="20" as="geometry" />
        </mxCell>
        <mxCell id="siOsUkltjjiD13jDmhsd-24" value="Escola" style="rounded=0;whiteSpace=wrap;html=1;" vertex="1" parent="1">
          <mxGeometry x="119" y="770" width="120" height="60" as="geometry" />
        </mxCell>
        <mxCell id="siOsUkltjjiD13jDmhsd-25" value="turmas" style="rounded=0;whiteSpace=wrap;html=1;" vertex="1" parent="1">
          <mxGeometry x="589" y="770" width="120" height="60" as="geometry" />
        </mxCell>
        <mxCell id="siOsUkltjjiD13jDmhsd-26" value="n" style="endArrow=none;html=1;exitX=1;exitY=0.5;exitDx=0;exitDy=0;entryX=0;entryY=0.5;entryDx=0;entryDy=0;" edge="1" parent="1" source="siOsUkltjjiD13jDmhsd-27" target="siOsUkltjjiD13jDmhsd-25">
          <mxGeometry width="50" height="50" relative="1" as="geometry">
            <mxPoint x="399" y="825" as="sourcePoint" />
            <mxPoint x="449" y="775" as="targetPoint" />
          </mxGeometry>
        </mxCell>
        <mxCell id="siOsUkltjjiD13jDmhsd-27" value="tem" style="rhombus;whiteSpace=wrap;html=1;" vertex="1" parent="1">
          <mxGeometry x="372.5" y="760" width="80" height="80" as="geometry" />
        </mxCell>
        <mxCell id="siOsUkltjjiD13jDmhsd-28" value="1" style="endArrow=none;html=1;exitX=1;exitY=0.5;exitDx=0;exitDy=0;entryX=0;entryY=0.5;entryDx=0;entryDy=0;" edge="1" parent="1" source="siOsUkltjjiD13jDmhsd-24" target="siOsUkltjjiD13jDmhsd-27">
          <mxGeometry width="50" height="50" relative="1" as="geometry">
            <mxPoint x="239" y="800" as="sourcePoint" />
            <mxPoint x="589" y="800" as="targetPoint" />
          </mxGeometry>
        </mxCell>
        <mxCell id="siOsUkltjjiD13jDmhsd-29" value="turma" style="rounded=0;whiteSpace=wrap;html=1;" vertex="1" parent="1">
          <mxGeometry x="119" y="890" width="120" height="60" as="geometry" />
        </mxCell>
        <mxCell id="siOsUkltjjiD13jDmhsd-30" value="professores" style="rounded=0;whiteSpace=wrap;html=1;" vertex="1" parent="1">
          <mxGeometry x="589" y="890" width="120" height="60" as="geometry" />
        </mxCell>
        <mxCell id="siOsUkltjjiD13jDmhsd-31" value="n" style="endArrow=none;html=1;exitX=1;exitY=0.5;exitDx=0;exitDy=0;entryX=0;entryY=0.5;entryDx=0;entryDy=0;" edge="1" parent="1" source="siOsUkltjjiD13jDmhsd-32" target="siOsUkltjjiD13jDmhsd-30">
          <mxGeometry width="50" height="50" relative="1" as="geometry">
            <mxPoint x="399" y="945" as="sourcePoint" />
            <mxPoint x="449" y="895" as="targetPoint" />
          </mxGeometry>
        </mxCell>
        <mxCell id="siOsUkltjjiD13jDmhsd-32" value="tem aula" style="rhombus;whiteSpace=wrap;html=1;" vertex="1" parent="1">
          <mxGeometry x="372.5" y="880" width="80" height="80" as="geometry" />
        </mxCell>
        <mxCell id="siOsUkltjjiD13jDmhsd-33" value="n" style="endArrow=none;html=1;exitX=1;exitY=0.5;exitDx=0;exitDy=0;entryX=0;entryY=0.5;entryDx=0;entryDy=0;" edge="1" parent="1" source="siOsUkltjjiD13jDmhsd-29" target="siOsUkltjjiD13jDmhsd-32">
          <mxGeometry width="50" height="50" relative="1" as="geometry">
            <mxPoint x="239" y="920" as="sourcePoint" />
            <mxPoint x="589" y="920" as="targetPoint" />
          </mxGeometry>
        </mxCell>
        <mxCell id="siOsUkltjjiD13jDmhsd-39" value="turma" style="rounded=0;whiteSpace=wrap;html=1;" vertex="1" parent="1">
          <mxGeometry x="117.5" y="1020" width="120" height="60" as="geometry" />
        </mxCell>
        <mxCell id="siOsUkltjjiD13jDmhsd-40" value="sala" style="rounded=0;whiteSpace=wrap;html=1;" vertex="1" parent="1">
          <mxGeometry x="587.5" y="1020" width="120" height="60" as="geometry" />
        </mxCell>
        <mxCell id="siOsUkltjjiD13jDmhsd-41" value="1" style="endArrow=none;html=1;exitX=1;exitY=0.5;exitDx=0;exitDy=0;entryX=0;entryY=0.5;entryDx=0;entryDy=0;" edge="1" parent="1" source="siOsUkltjjiD13jDmhsd-42" target="siOsUkltjjiD13jDmhsd-40">
          <mxGeometry width="50" height="50" relative="1" as="geometry">
            <mxPoint x="397.5" y="1075" as="sourcePoint" />
            <mxPoint x="447.5" y="1025" as="targetPoint" />
          </mxGeometry>
        </mxCell>
        <mxCell id="siOsUkltjjiD13jDmhsd-42" value="tem" style="rhombus;whiteSpace=wrap;html=1;" vertex="1" parent="1">
          <mxGeometry x="371" y="1010" width="80" height="80" as="geometry" />
        </mxCell>
        <mxCell id="siOsUkltjjiD13jDmhsd-43" value="n" style="endArrow=none;html=1;exitX=1;exitY=0.5;exitDx=0;exitDy=0;entryX=0;entryY=0.5;entryDx=0;entryDy=0;" edge="1" parent="1" source="siOsUkltjjiD13jDmhsd-39" target="siOsUkltjjiD13jDmhsd-42">
          <mxGeometry width="50" height="50" relative="1" as="geometry">
            <mxPoint x="237.5" y="1050" as="sourcePoint" />
            <mxPoint x="587.5" y="1050" as="targetPoint" />
          </mxGeometry>
        </mxCell>
        <mxCell id="siOsUkltjjiD13jDmhsd-44" value="livro" style="rounded=0;whiteSpace=wrap;html=1;" vertex="1" parent="1">
          <mxGeometry x="116.75" y="1160" width="120" height="60" as="geometry" />
        </mxCell>
        <mxCell id="siOsUkltjjiD13jDmhsd-45" value="autores" style="rounded=0;whiteSpace=wrap;html=1;" vertex="1" parent="1">
          <mxGeometry x="586.75" y="1160" width="120" height="60" as="geometry" />
        </mxCell>
        <mxCell id="siOsUkltjjiD13jDmhsd-46" value="n" style="endArrow=none;html=1;exitX=1;exitY=0.5;exitDx=0;exitDy=0;entryX=0;entryY=0.5;entryDx=0;entryDy=0;" edge="1" parent="1" source="siOsUkltjjiD13jDmhsd-47" target="siOsUkltjjiD13jDmhsd-45">
          <mxGeometry width="50" height="50" relative="1" as="geometry">
            <mxPoint x="396.75" y="1215" as="sourcePoint" />
            <mxPoint x="446.75" y="1165" as="targetPoint" />
          </mxGeometry>
        </mxCell>
        <mxCell id="siOsUkltjjiD13jDmhsd-47" value="escrito" style="rhombus;whiteSpace=wrap;html=1;" vertex="1" parent="1">
          <mxGeometry x="370.25" y="1150" width="80" height="80" as="geometry" />
        </mxCell>
        <mxCell id="siOsUkltjjiD13jDmhsd-48" value="n" style="endArrow=none;html=1;exitX=1;exitY=0.5;exitDx=0;exitDy=0;entryX=0;entryY=0.5;entryDx=0;entryDy=0;" edge="1" parent="1" source="siOsUkltjjiD13jDmhsd-44" target="siOsUkltjjiD13jDmhsd-47">
          <mxGeometry width="50" height="50" relative="1" as="geometry">
            <mxPoint x="236.75" y="1190" as="sourcePoint" />
            <mxPoint x="586.75" y="1190" as="targetPoint" />
          </mxGeometry>
        </mxCell>
        <mxCell id="siOsUkltjjiD13jDmhsd-49" value="livro" style="rounded=0;whiteSpace=wrap;html=1;" vertex="1" parent="1">
          <mxGeometry x="116.75" y="1280" width="120" height="60" as="geometry" />
        </mxCell>
        <mxCell id="siOsUkltjjiD13jDmhsd-50" value="categoria" style="rounded=0;whiteSpace=wrap;html=1;" vertex="1" parent="1">
          <mxGeometry x="586.75" y="1280" width="120" height="60" as="geometry" />
        </mxCell>
        <mxCell id="siOsUkltjjiD13jDmhsd-51" value="1" style="endArrow=none;html=1;exitX=1;exitY=0.5;exitDx=0;exitDy=0;entryX=0;entryY=0.5;entryDx=0;entryDy=0;" edge="1" parent="1" source="siOsUkltjjiD13jDmhsd-52" target="siOsUkltjjiD13jDmhsd-50">
          <mxGeometry width="50" height="50" relative="1" as="geometry">
            <mxPoint x="396.75" y="1335" as="sourcePoint" />
            <mxPoint x="446.75" y="1285" as="targetPoint" />
          </mxGeometry>
        </mxCell>
        <mxCell id="siOsUkltjjiD13jDmhsd-52" value="possui" style="rhombus;whiteSpace=wrap;html=1;" vertex="1" parent="1">
          <mxGeometry x="370.25" y="1270" width="80" height="80" as="geometry" />
        </mxCell>
        <mxCell id="siOsUkltjjiD13jDmhsd-53" value="n" style="endArrow=none;html=1;exitX=1;exitY=0.5;exitDx=0;exitDy=0;entryX=0;entryY=0.5;entryDx=0;entryDy=0;" edge="1" parent="1" source="siOsUkltjjiD13jDmhsd-49" target="siOsUkltjjiD13jDmhsd-52">
          <mxGeometry width="50" height="50" relative="1" as="geometry">
            <mxPoint x="236.75" y="1310" as="sourcePoint" />
            <mxPoint x="586.75" y="1310" as="targetPoint" />
          </mxGeometry>
        </mxCell>
        <mxCell id="siOsUkltjjiD13jDmhsd-59" value="Atividade 5" style="text;html=1;align=center;verticalAlign=middle;resizable=0;points=[];autosize=1;" vertex="1" parent="1">
          <mxGeometry x="145" y="1110" width="70" height="20" as="geometry" />
        </mxCell>
        <mxCell id="siOsUkltjjiD13jDmhsd-60" value="cliente" style="rounded=0;whiteSpace=wrap;html=1;" vertex="1" parent="1">
          <mxGeometry x="115.25" y="1490" width="120" height="60" as="geometry" />
        </mxCell>
        <mxCell id="siOsUkltjjiD13jDmhsd-61" value="pedidos" style="rounded=0;whiteSpace=wrap;html=1;" vertex="1" parent="1">
          <mxGeometry x="585.25" y="1490" width="120" height="60" as="geometry" />
        </mxCell>
        <mxCell id="siOsUkltjjiD13jDmhsd-62" value="n" style="endArrow=none;html=1;exitX=1;exitY=0.5;exitDx=0;exitDy=0;entryX=0;entryY=0.5;entryDx=0;entryDy=0;" edge="1" parent="1" source="siOsUkltjjiD13jDmhsd-63" target="siOsUkltjjiD13jDmhsd-61">
          <mxGeometry width="50" height="50" relative="1" as="geometry">
            <mxPoint x="395.25" y="1545" as="sourcePoint" />
            <mxPoint x="445.25" y="1495" as="targetPoint" />
          </mxGeometry>
        </mxCell>
        <mxCell id="siOsUkltjjiD13jDmhsd-63" value="faz" style="rhombus;whiteSpace=wrap;html=1;" vertex="1" parent="1">
          <mxGeometry x="368.75" y="1480" width="80" height="80" as="geometry" />
        </mxCell>
        <mxCell id="siOsUkltjjiD13jDmhsd-64" value="1" style="endArrow=none;html=1;exitX=1;exitY=0.5;exitDx=0;exitDy=0;entryX=0;entryY=0.5;entryDx=0;entryDy=0;" edge="1" parent="1" source="siOsUkltjjiD13jDmhsd-60" target="siOsUkltjjiD13jDmhsd-63">
          <mxGeometry width="50" height="50" relative="1" as="geometry">
            <mxPoint x="235.25" y="1520" as="sourcePoint" />
            <mxPoint x="585.25" y="1520" as="targetPoint" />
          </mxGeometry>
        </mxCell>
        <mxCell id="siOsUkltjjiD13jDmhsd-65" value="pedido" style="rounded=0;whiteSpace=wrap;html=1;" vertex="1" parent="1">
          <mxGeometry x="115.25" y="1610" width="120" height="60" as="geometry" />
        </mxCell>
        <mxCell id="siOsUkltjjiD13jDmhsd-66" value="produtos" style="rounded=0;whiteSpace=wrap;html=1;" vertex="1" parent="1">
          <mxGeometry x="585.25" y="1610" width="120" height="60" as="geometry" />
        </mxCell>
        <mxCell id="siOsUkltjjiD13jDmhsd-67" value="n" style="endArrow=none;html=1;exitX=1;exitY=0.5;exitDx=0;exitDy=0;entryX=0;entryY=0.5;entryDx=0;entryDy=0;" edge="1" parent="1" source="siOsUkltjjiD13jDmhsd-68" target="siOsUkltjjiD13jDmhsd-66">
          <mxGeometry width="50" height="50" relative="1" as="geometry">
            <mxPoint x="395.25" y="1665" as="sourcePoint" />
            <mxPoint x="445.25" y="1615" as="targetPoint" />
          </mxGeometry>
        </mxCell>
        <mxCell id="siOsUkltjjiD13jDmhsd-68" value="contem" style="rhombus;whiteSpace=wrap;html=1;" vertex="1" parent="1">
          <mxGeometry x="368.75" y="1600" width="80" height="80" as="geometry" />
        </mxCell>
        <mxCell id="siOsUkltjjiD13jDmhsd-69" value="n" style="endArrow=none;html=1;exitX=1;exitY=0.5;exitDx=0;exitDy=0;entryX=0;entryY=0.5;entryDx=0;entryDy=0;" edge="1" parent="1" source="siOsUkltjjiD13jDmhsd-65" target="siOsUkltjjiD13jDmhsd-68">
          <mxGeometry width="50" height="50" relative="1" as="geometry">
            <mxPoint x="235.25" y="1640" as="sourcePoint" />
            <mxPoint x="585.25" y="1640" as="targetPoint" />
          </mxGeometry>
        </mxCell>
        <mxCell id="siOsUkltjjiD13jDmhsd-73" value="n" style="endArrow=none;html=1;exitX=0.5;exitY=0;exitDx=0;exitDy=0;entryX=0.5;entryY=1;entryDx=0;entryDy=0;" edge="1" parent="1" source="siOsUkltjjiD13jDmhsd-6" target="siOsUkltjjiD13jDmhsd-9">
          <mxGeometry width="50" height="50" relative="1" as="geometry">
            <mxPoint x="420" y="120" as="sourcePoint" />
            <mxPoint x="470" y="70" as="targetPoint" />
          </mxGeometry>
        </mxCell>
        <mxCell id="siOsUkltjjiD13jDmhsd-74" value="n" style="endArrow=none;html=1;entryX=0.5;entryY=1;entryDx=0;entryDy=0;exitX=0.5;exitY=0;exitDx=0;exitDy=0;" edge="1" parent="1" source="siOsUkltjjiD13jDmhsd-9" target="siOsUkltjjiD13jDmhsd-2">
          <mxGeometry width="50" height="50" relative="1" as="geometry">
            <mxPoint x="420" y="120" as="sourcePoint" />
            <mxPoint x="470" y="70" as="targetPoint" />
          </mxGeometry>
        </mxCell>
      </root>
    </mxGraphModel>
  </diagram>
</mxfile>
